<svg width="131" height="131" viewBox="0 0 131 131" fill="none" xmlns="http://www.w3.org/2000/svg">
<path d="M11.2292 38.5288C11.2292 35.6579 12.3697 32.9046 14.3997 30.8746C16.4297 28.8446 19.183 27.7042 22.0539 27.7042H108.651C111.522 27.7042 114.275 28.8446 116.305 30.8746C118.335 32.9046 119.475 35.6579 119.475 38.5288V92.6518C119.475 95.5226 118.335 98.2759 116.305 100.306C114.275 102.336 111.522 103.476 108.651 103.476H22.0539C19.183 103.476 16.4297 102.336 14.3997 100.306C12.3697 98.2759 11.2292 95.5226 11.2292 92.6518V38.5288Z" stroke="black" stroke-width="10.8246" stroke-linecap="round" stroke-linejoin="round"/>
<path d="M65.3521 81.8271C74.3195 81.8271 81.589 74.5576 81.589 65.5902C81.589 56.6228 74.3195 49.3533 65.3521 49.3533C56.3847 49.3533 49.1152 56.6228 49.1152 65.5902C49.1152 74.5576 56.3847 81.8271 65.3521 81.8271Z" stroke="black" stroke-width="10.8246" stroke-linecap="round" stroke-linejoin="round"/>
<path d="M97.8261 103.476C97.8261 97.7346 100.107 92.2281 104.167 88.1681C108.227 84.1081 113.734 81.8272 119.475 81.8272M11.2292 49.3534C16.971 49.3534 22.4775 47.0725 26.5375 43.0125C30.5976 38.9524 32.8785 33.4459 32.8785 27.7042L11.2292 49.3534Z" stroke="black" stroke-width="10.8246" stroke-linecap="round" stroke-linejoin="round"/>
</svg>
