<svg width="42" height="42" viewBox="0 0 42 42" fill="none" xmlns="http://www.w3.org/2000/svg">
<path d="M33.154 3.57373H15.7045C13.7798 3.57373 12.2146 5.13895 12.2146 7.06363V16.8109L4.00113 25.0244C3.75717 25.2685 3.59104 25.5793 3.52374 25.9178C3.45644 26.2562 3.491 26.607 3.62304 26.9258C3.75508 27.2446 3.97868 27.5171 4.26557 27.7089C4.55245 27.9006 4.88975 28.003 5.23481 28.0031V36.7278C5.23481 37.1906 5.41866 37.6344 5.7459 37.9617C6.07314 38.2889 6.51698 38.4728 6.97977 38.4728H34.899C35.3618 38.4728 35.8056 38.2889 36.1329 37.9617C36.4601 37.6344 36.6439 37.1906 36.6439 36.7278V7.06363C36.6439 5.13895 35.0787 3.57373 33.154 3.57373ZM19.1944 34.9829H8.72472V25.2356L13.9596 20.0007L19.1944 25.2356V34.9829ZM33.154 34.9829H22.6843V28.0031C23.0298 28.0038 23.3676 27.9019 23.6551 27.7103C23.9425 27.5187 24.1665 27.246 24.2987 26.9269C24.4309 26.6078 24.4653 26.2565 24.3975 25.9178C24.3297 25.5791 24.1628 25.2681 23.918 25.0244L15.7045 16.8109V7.06363H33.154V34.9829Z" fill="white"/>
<path d="M19.1944 10.5535H22.6843V14.0434H19.1944V10.5535ZM26.1742 10.5535H29.6641V14.0434H26.1742V10.5535ZM26.1742 17.5874H29.6641V21.0232H26.1742V17.5874ZM26.1742 24.5131H29.6641V28.003H26.1742V24.5131ZM12.2146 26.2581H15.7045V29.748H12.2146V26.2581Z" fill="white"/>
</svg>
