<svg width="103" height="103" viewBox="0 0 103 103" fill="none" xmlns="http://www.w3.org/2000/svg">
<path d="M51.4183 5.30786V10.4432V5.30786ZM51.4183 92.608V97.7433V92.608ZM97.636 51.5256H92.5007H97.636ZM10.3359 51.5256H5.20056H10.3359ZM84.0993 84.2066L80.4687 80.576L84.0993 84.2066ZM22.3679 22.4752L18.7372 18.8445L22.3679 22.4752ZM84.0993 18.8445L80.4687 22.4752L84.0993 18.8445ZM22.3679 80.576L18.7372 84.2066L22.3679 80.576ZM71.9595 51.5256C71.9595 56.9734 69.7953 62.1982 65.9431 66.0504C62.0909 69.9026 56.8661 72.0668 51.4183 72.0668C45.9704 72.0668 40.7457 69.9026 36.8934 66.0504C33.0412 62.1982 30.8771 56.9734 30.8771 51.5256C30.8771 46.0777 33.0412 40.853 36.8934 37.0007C40.7457 33.1485 45.9704 30.9844 51.4183 30.9844C56.8661 30.9844 62.0909 33.1485 65.9431 37.0007C69.7953 40.853 71.9595 46.0777 71.9595 51.5256V51.5256Z" stroke="black" stroke-width="10.2706" stroke-linecap="round" stroke-linejoin="round"/>
</svg>
